<svg width="12" height="11" viewBox="0 0 12 11" fill="none" xmlns="http://www.w3.org/2000/svg">
<path d="M6.00016 10.4004C9.31449 10.4004 12 8.16175 12 5.40039C12 2.63903 9.31449 0.400391 6.00016 0.400391C2.68582 0.400391 0.000315701 2.63903 0.000315701 5.40039C0.000315701 6.49698 0.424343 7.51119 1.14259 8.33789C1.04163 8.60494 0.891638 8.84073 0.732989 9.0396C0.594531 9.21573 0.453188 9.35209 0.349345 9.44585C0.297423 9.4913 0.254155 9.52823 0.22531 9.55096C0.210887 9.56232 0.199349 9.57085 0.19358 9.57369L0.187811 9.57937C0.0291611 9.69585 -0.0400679 9.90039 0.023392 10.085C0.0868519 10.2697 0.262809 10.4004 0.461842 10.4004C1.09067 10.4004 1.72527 10.2413 2.25314 10.0453C2.51852 9.94585 2.76659 9.83505 2.98293 9.72141C3.86848 10.1532 4.89826 10.4004 6.00016 10.4004Z" fill="#848484"/>
</svg>
