<svg width="12" height="14" viewBox="0 0 12 14" fill="none" xmlns="http://www.w3.org/2000/svg">
<path d="M5.50751 1.20309e-08C5.31366 -1.20993e-05 5.12268 0.0468433 4.95085 0.136573C4.77902 0.226303 4.63143 0.356246 4.52066 0.51533L0.885866 5.73476C0.203316 6.7149 -0.100901 7.90919 0.02956 9.09643L0.309556 11.6396C0.36739 12.1676 0.602407 12.6604 0.976282 13.0377C1.35016 13.4151 1.84083 13.6546 2.3683 13.7172L4.18655 13.9337C5.57451 14.0986 6.98222 13.9551 8.30919 13.5137C8.76792 13.3611 9.18758 13.1098 9.53856 12.7774C9.88954 12.445 10.1633 12.0395 10.3404 11.5898L11.8083 7.85964C11.9694 7.45025 12.016 7.00468 11.9428 6.57084C11.8697 6.13699 11.6797 5.73128 11.3933 5.39733C11.1069 5.06338 10.7348 4.81381 10.3172 4.67548C9.89953 4.53714 9.45207 4.51527 9.02292 4.6122L5.675 5.3663L6.6713 1.50219C6.71703 1.32453 6.72151 1.13876 6.68438 0.959099C6.64726 0.779442 6.56952 0.610662 6.45711 0.465679C6.34471 0.320697 6.20062 0.203356 6.03588 0.122641C5.87113 0.0419248 5.69097 -2.59369e-05 5.50751 1.20309e-08Z" fill="#FFD233"/>
</svg>
